<?xml version="1.0" encoding="UTF-8"?> <svg xmlns="http://www.w3.org/2000/svg" width="295" height="64" viewBox="0 0 295 64" fill="none"><g clip-path="url(#clip0_20_481)"><path d="M76.59 29.5301V8.98009H89.09V11.0001H78.87V18.1001H87.3V20.0901H78.87V27.5101H89.09V29.5301H76.59Z" fill="white"></path><path d="M96.55 16.3701C94.39 16.3701 93.31 17.1201 93.31 18.6301C93.31 19.3201 93.56 19.8101 94.05 20.1001C94.54 20.3901 95.67 20.6801 97.44 20.9901C99.2 21.3001 100.45 21.7301 101.18 22.2801C101.91 22.8301 102.28 23.8701 102.28 25.4001C102.28 26.9301 101.79 28.0401 100.81 28.7601C99.83 29.4701 98.4 29.8301 96.52 29.8301C95.29 29.8301 93.85 29.6901 92.19 29.4101L91.3 29.2601L91.42 27.3301C93.68 27.6701 95.38 27.8301 96.53 27.8301C97.68 27.8301 98.55 27.6501 99.16 27.2801C99.76 26.9101 100.07 26.3001 100.07 25.4401C100.07 24.5801 99.81 23.9901 99.3 23.6901C98.79 23.3801 97.66 23.0901 95.92 22.8101C94.18 22.5301 92.94 22.1301 92.21 21.5901C91.48 21.0601 91.11 20.0701 91.11 18.6201C91.11 17.1701 91.62 16.1101 92.64 15.4101C93.66 14.7201 94.93 14.3701 96.46 14.3701C97.67 14.3701 99.18 14.5101 101 14.7901L101.83 14.9401L101.77 16.8401C99.57 16.5201 97.84 16.3601 96.57 16.3601L96.55 16.3701Z" fill="white"></path><path d="M112.64 16.6101H107.92V23.7101C107.92 25.4101 108.04 26.5301 108.29 27.0701C108.54 27.6001 109.13 27.8701 110.06 27.8701L112.7 27.6901L112.85 29.5301C111.52 29.7501 110.51 29.8601 109.82 29.8601C108.28 29.8601 107.21 29.4801 106.61 28.7301C106.02 27.9801 105.72 26.5401 105.72 24.4201V16.6101H103.61V14.6801H105.72V10.1401H107.92V14.6801H112.64V16.6101Z" fill="white"></path><path d="M113.98 22.0801C113.98 19.3701 114.47 17.4101 115.44 16.2001C116.41 14.9901 118.05 14.3901 120.36 14.3901C122.67 14.3901 124.3 14.9901 125.26 16.2001C126.22 17.4101 126.7 19.3701 126.7 22.0801C126.7 24.7901 126.24 26.7601 125.33 27.9901C124.42 29.2201 122.76 29.8301 120.34 29.8301C117.92 29.8301 116.26 29.2201 115.35 27.9901C114.44 26.7601 113.98 24.7901 113.98 22.0801ZM116.26 22.0301C116.26 24.2001 116.52 25.7201 117.05 26.5901C117.57 27.4601 118.67 27.9001 120.35 27.9001C122.03 27.9001 123.12 27.4701 123.63 26.6101C124.14 25.7501 124.4 24.2301 124.4 22.0501C124.4 19.8701 124.11 18.3701 123.54 17.5501C122.97 16.7301 121.9 16.3201 120.35 16.3201C118.8 16.3201 117.73 16.7301 117.14 17.5501C116.56 18.3701 116.26 19.8701 116.26 22.0301Z" fill="white"></path><path d="M131.79 29.5301H129.56V14.6801H131.76V15.7201C133.36 14.8301 134.9 14.3801 136.36 14.3801C138.34 14.3801 139.67 14.9101 140.35 15.9801C141.03 17.0501 141.37 18.9501 141.37 21.6801V29.5201H139.17V21.7401C139.17 19.6801 138.97 18.2701 138.56 17.5101C138.15 16.7501 137.29 16.3701 135.96 16.3701C135.33 16.3701 134.66 16.4601 133.96 16.6501C133.26 16.8401 132.72 17.0201 132.34 17.2001L131.78 17.4701V29.5301H131.79Z" fill="white"></path><path d="M144.77 11.3301V8.75009H147V11.3301H144.77ZM144.77 29.5301V14.6801H147V29.5301H144.77Z" fill="white"></path><path d="M161.01 19.1701V26.7701C161.07 27.5001 161.64 27.9401 162.73 28.0801L162.64 29.8301C161.08 29.8301 159.9 29.4301 159.11 28.6401C157.33 29.4301 155.55 29.8301 153.76 29.8301C152.39 29.8301 151.35 29.4401 150.64 28.6701C149.93 27.9001 149.57 26.7901 149.57 25.3401C149.57 23.8901 149.94 22.8301 150.67 22.1501C151.4 21.4701 152.55 21.0501 154.12 20.8901L158.78 20.4401V19.1601C158.78 18.1501 158.56 17.4301 158.13 16.9901C157.69 16.5501 157.1 16.3401 156.35 16.3401C154.77 16.3401 153.12 16.4401 151.42 16.6401L150.5 16.7301L150.41 15.0401C152.59 14.6001 154.52 14.3901 156.2 14.3901C157.88 14.3901 159.11 14.7801 159.87 15.5501C160.63 16.3201 161.01 17.5301 161.01 19.1701ZM151.87 25.2201C151.87 27.0401 152.62 27.9501 154.13 27.9501C155.48 27.9501 156.8 27.7201 158.11 27.2701L158.79 27.0301V22.1301L154.4 22.5501C153.51 22.6301 152.86 22.8901 152.47 23.3201C152.07 23.7601 151.88 24.3901 151.88 25.2201H151.87Z" fill="white"></path><path d="M166.89 29.5301H164.66V14.6801H166.86V15.7201C168.46 14.8301 170 14.3801 171.46 14.3801C173.44 14.3801 174.77 14.9101 175.45 15.9801C176.13 17.0501 176.47 18.9501 176.47 21.6801V29.5201H174.27V21.7401C174.27 19.6801 174.07 18.2701 173.66 17.5101C173.25 16.7501 172.39 16.3701 171.06 16.3701C170.43 16.3701 169.76 16.4601 169.06 16.6501C168.36 16.8401 167.82 17.0201 167.44 17.2001L166.88 17.4701V29.5301H166.89Z" fill="white"></path><path d="M198.52 29.2001C196.42 29.6601 194.53 29.8801 192.85 29.8801C191.17 29.8801 189.82 29.6701 188.81 29.2601C187.8 28.8401 187.01 28.1801 186.43 27.2701C185.85 26.3601 185.46 25.2901 185.24 24.0601C185.02 22.8301 184.91 21.2901 184.91 19.4301C184.91 15.5301 185.46 12.8101 186.56 11.2801C187.66 9.75009 189.68 8.98009 192.63 8.98009C194.33 8.98009 196.3 9.25009 198.54 9.78009L198.42 13.0501C196.46 12.7501 194.83 12.6001 193.54 12.6001C192.25 12.6001 191.32 12.7701 190.76 13.1201C190.21 13.4701 189.79 14.1301 189.53 15.1001C189.26 16.0701 189.13 17.7201 189.13 20.0601C189.13 22.4001 189.4 24.0101 189.95 24.9201C190.49 25.8201 191.58 26.2701 193.22 26.2701C194.86 26.2701 196.59 26.1301 198.43 25.8501L198.52 29.2101V29.2001Z" fill="white"></path><path d="M204.5 25.7701C204.96 26.1801 205.63 26.3801 206.5 26.3801C208.34 26.3801 209.98 26.3201 211.43 26.2001L212.26 26.1101L212.32 29.0501C210.04 29.6001 207.98 29.8801 206.14 29.8801C203.9 29.8801 202.28 29.2901 201.27 28.1001C200.26 26.9101 199.76 24.9801 199.76 22.3101C199.76 16.9801 201.95 14.3201 206.32 14.3201C210.69 14.3201 212.79 16.5601 212.79 21.0301L212.49 23.7901H203.76C203.78 24.7001 204.02 25.3601 204.49 25.7701H204.5ZM208.88 20.7701C208.88 19.5801 208.69 18.7601 208.32 18.2901C207.94 17.8301 207.28 17.5901 206.35 17.5901C205.42 17.5901 204.75 17.8301 204.36 18.3201C203.97 18.8101 203.77 19.6201 203.75 20.7701H208.89H208.88Z" fill="white"></path><path d="M218.89 29.5301H214.91V14.6801H218.86V15.5101C220.21 14.7201 221.44 14.3201 222.57 14.3201C224.55 14.3201 225.91 14.9001 226.67 16.0701C227.42 17.2401 227.8 19.0401 227.8 21.4701V29.5201H223.82V21.5901C223.82 20.3201 223.67 19.3901 223.37 18.7801C223.07 18.1701 222.48 17.8701 221.59 17.8701C220.78 17.8701 220 18.0101 219.24 18.2901L218.88 18.4101V29.5201L218.89 29.5301Z" fill="white"></path><path d="M238.82 18.0701H235.17V24.1601C235.17 24.7501 235.18 25.1701 235.21 25.4201C235.24 25.6701 235.35 25.8801 235.54 26.0601C235.73 26.2401 236.02 26.3301 236.42 26.3301L238.68 26.2701L238.86 29.4501C237.53 29.7501 236.52 29.9001 235.83 29.9001C234.05 29.9001 232.83 29.5001 232.18 28.7001C231.53 27.9001 231.2 26.4201 231.2 24.2601V18.0801H229.45V14.6901H231.2V10.5601H235.18V14.6901H238.83V18.0801L238.82 18.0701Z" fill="white"></path><path d="M240.66 29.5301V14.6801H244.61V16.2501C246.27 15.2601 247.86 14.6201 249.36 14.3201V18.3301C247.76 18.6701 246.38 19.0101 245.23 19.3701L244.64 19.5801V29.5301H240.66Z" fill="white"></path><path d="M254.96 25.7701C255.42 26.1801 256.09 26.3801 256.96 26.3801C258.8 26.3801 260.44 26.3201 261.89 26.2001L262.72 26.1101L262.78 29.0501C260.5 29.6001 258.44 29.8801 256.6 29.8801C254.36 29.8801 252.74 29.2901 251.73 28.1001C250.72 26.9101 250.22 24.9801 250.22 22.3101C250.22 16.9801 252.41 14.3201 256.78 14.3201C261.15 14.3201 263.25 16.5601 263.25 21.0301L262.95 23.7901H254.22C254.24 24.7001 254.48 25.3601 254.95 25.7701H254.96ZM259.34 20.7701C259.34 19.5801 259.15 18.7601 258.78 18.2901C258.4 17.8301 257.74 17.5901 256.81 17.5901C255.88 17.5901 255.21 17.8301 254.82 18.3201C254.43 18.8101 254.23 19.6201 254.21 20.7701H259.35H259.34Z" fill="white"></path><path d="M271.95 16.3601C273 15.0001 274.75 14.3301 277.21 14.3301C279.67 14.3301 281.42 15.0101 282.47 16.3601C283.52 17.7201 284.04 19.6201 284.04 22.0801C284.04 27.2901 281.76 29.8901 277.21 29.8901C272.66 29.8901 270.38 27.2901 270.38 22.0801C270.38 19.6301 270.9 17.7201 271.95 16.3601ZM275.03 25.4301C275.44 26.1401 276.16 26.5001 277.21 26.5001C278.26 26.5001 278.99 26.1401 279.39 25.4301C279.8 24.7201 280 23.6001 280 22.0701C280 20.5401 279.8 19.4401 279.39 18.7401C278.98 18.0501 278.26 17.7001 277.21 17.7001C276.16 17.7001 275.43 18.0501 275.03 18.7401C274.62 19.4301 274.42 20.5401 274.42 22.0701C274.42 23.6001 274.62 24.7101 275.03 25.4301Z" fill="white"></path><path d="M290.9 18.0701V29.5301H286.92V18.0701H285.32V14.6801H286.92V14.0301C286.92 11.8901 287.24 10.4201 287.87 9.61009C288.5 8.80009 289.63 8.39009 291.26 8.39009C291.97 8.39009 292.89 8.49009 294.02 8.69009L294.64 8.78009L294.58 12.0201C293.71 11.9801 292.98 11.9601 292.38 11.9601C291.78 11.9601 291.39 12.1201 291.19 12.4401C290.99 12.7601 290.89 13.3001 290.89 14.0701V14.6901H294.48V18.0801H290.89L290.9 18.0701Z" fill="white"></path><path d="M76.26 54.9201V34.7301H89.33V38.2901H80.36V43.0101H87.55V46.5101H80.36V51.3501H89.33V54.9101H76.26V54.9201Z" fill="white"></path><path d="M90.19 40.0701H94.44L96.82 44.6701L99.23 40.0701H103.48L99.26 47.3501L103.48 54.9201H99.23L96.82 50.3801L94.44 54.9201H90.19L94.26 47.4701L90.19 40.0801V40.0701Z" fill="white"></path><path d="M110.21 39.7201C111.24 39.7201 112.56 39.8801 114.16 40.2001L114.96 40.3801L114.84 43.5301C113.28 43.3701 112.12 43.2901 111.37 43.2901C110 43.2901 109.1 43.5801 108.65 44.1701C108.2 44.7601 107.98 45.8601 107.98 47.4801C107.98 49.1001 108.2 50.2201 108.65 50.8201C109.1 51.4201 110.01 51.7301 111.4 51.7301L114.84 51.4901L114.96 54.6701C112.84 55.0901 111.23 55.2901 110.12 55.2901C107.92 55.2901 106.34 54.6701 105.38 53.4301C104.42 52.1901 103.94 50.2101 103.94 47.4801C103.94 44.7501 104.43 42.7701 105.42 41.5601C106.41 40.3401 108 39.7301 110.2 39.7301L110.21 39.7201Z" fill="white"></path><path d="M121.03 51.1701C121.49 51.5801 122.16 51.7801 123.03 51.7801C124.87 51.7801 126.51 51.7201 127.96 51.6001L128.79 51.5101L128.85 54.4501C126.57 55.0001 124.51 55.2801 122.67 55.2801C120.43 55.2801 118.81 54.6901 117.8 53.5001C116.79 52.3101 116.29 50.3801 116.29 47.7101C116.29 42.3801 118.48 39.7201 122.85 39.7201C127.22 39.7201 129.32 41.9601 129.32 46.4301L129.02 49.1901H120.29C120.31 50.1001 120.55 50.7601 121.02 51.1701H121.03ZM125.41 46.1601C125.41 44.9701 125.22 44.1501 124.85 43.6801C124.47 43.2201 123.81 42.9801 122.88 42.9801C121.95 42.9801 121.28 43.2201 120.89 43.7101C120.5 44.2001 120.3 45.0101 120.28 46.1601H125.42H125.41Z" fill="white"></path><path d="M131.62 54.9201V34.1301H135.6V54.9201H131.62Z" fill="white"></path><path d="M138.89 54.9201V34.1301H142.87V54.9201H138.89Z" fill="white"></path><path d="M149.98 51.1701C150.44 51.5801 151.11 51.7801 151.98 51.7801C153.82 51.7801 155.46 51.7201 156.91 51.6001L157.74 51.5101L157.8 54.4501C155.52 55.0001 153.46 55.2801 151.62 55.2801C149.38 55.2801 147.76 54.6901 146.75 53.5001C145.74 52.3101 145.24 50.3801 145.24 47.7101C145.24 42.3801 147.43 39.7201 151.8 39.7201C156.17 39.7201 158.27 41.9601 158.27 46.4301L157.97 49.1901H149.24C149.26 50.1001 149.5 50.7601 149.97 51.1701H149.98ZM154.36 46.1601C154.36 44.9701 154.17 44.1501 153.8 43.6801C153.42 43.2201 152.76 42.9801 151.83 42.9801C150.9 42.9801 150.23 43.2201 149.84 43.7101C149.45 44.2001 149.25 45.0101 149.23 46.1601H154.37H154.36Z" fill="white"></path><path d="M164.37 54.9201H160.39V40.0701H164.34V40.9001C165.69 40.1101 166.92 39.7101 168.05 39.7101C170.03 39.7101 171.39 40.2901 172.15 41.4601C172.9 42.6301 173.28 44.4301 173.28 46.8601V54.9101H169.3V46.9801C169.3 45.7101 169.15 44.7801 168.85 44.1701C168.55 43.5601 167.96 43.2601 167.07 43.2601C166.26 43.2601 165.48 43.4001 164.72 43.6801L164.36 43.8001V54.9101L164.37 54.9201Z" fill="white"></path><path d="M181.62 39.7201C182.65 39.7201 183.97 39.8801 185.57 40.2001L186.37 40.3801L186.25 43.5301C184.69 43.3701 183.53 43.2901 182.78 43.2901C181.41 43.2901 180.51 43.5801 180.06 44.1701C179.61 44.7601 179.39 45.8601 179.39 47.4801C179.39 49.1001 179.61 50.2201 180.06 50.8201C180.51 51.4201 181.42 51.7301 182.81 51.7301L186.25 51.4901L186.37 54.6701C184.25 55.0901 182.64 55.2901 181.53 55.2901C179.33 55.2901 177.75 54.6701 176.79 53.4301C175.83 52.1901 175.35 50.2101 175.35 47.4801C175.35 44.7501 175.84 42.7701 176.83 41.5601C177.82 40.3401 179.41 39.7301 181.61 39.7301L181.62 39.7201Z" fill="white"></path><path d="M192.45 51.1701C192.91 51.5801 193.58 51.7801 194.45 51.7801C196.29 51.7801 197.93 51.7201 199.38 51.6001L200.21 51.5101L200.27 54.4501C197.99 55.0001 195.93 55.2801 194.09 55.2801C191.85 55.2801 190.23 54.6901 189.22 53.5001C188.21 52.3101 187.71 50.3801 187.71 47.7101C187.71 42.3801 189.9 39.7201 194.27 39.7201C198.64 39.7201 200.74 41.9601 200.74 46.4301L200.44 49.1901H191.71C191.73 50.1001 191.97 50.7601 192.44 51.1701H192.45ZM196.83 46.1601C196.83 44.9701 196.64 44.1501 196.27 43.6801C195.89 43.2201 195.23 42.9801 194.3 42.9801C193.37 42.9801 192.7 43.2201 192.31 43.7101C191.92 44.2001 191.72 45.0101 191.7 46.1601H196.84H196.83Z" fill="white"></path><path d="M208.94 36.7201V34.1401H211.17V36.7201H208.94ZM208.94 54.9201V40.0701H211.17V54.9201H208.94Z" fill="white"></path><path d="M216.93 54.9201H214.7V40.0701H216.9V41.1101C218.5 40.2201 220.04 39.7701 221.5 39.7701C223.48 39.7701 224.81 40.3001 225.49 41.3701C226.17 42.4401 226.51 44.3401 226.51 47.0701V54.9101H224.31V47.1301C224.31 45.0701 224.11 43.6601 223.7 42.9001C223.29 42.1401 222.43 41.7601 221.1 41.7601C220.47 41.7601 219.8 41.8501 219.1 42.0401C218.4 42.2301 217.86 42.4101 217.48 42.5901L216.92 42.8601V54.9201H216.93Z" fill="white"></path><path d="M234.27 54.9201L239.91 35.1101C239.91 35.1101 240.07 34.1501 241.4 34.1501H243.39C244.76 34.1501 244.9 35.1101 244.9 35.1101L250.54 54.9201H248.28L246.79 49.8301H238L236.52 54.9201H234.26H234.27ZM241.59 36.1001L238.52 47.8601H246.3L243.13 36.1001H241.59Z" fill="white"></path><path d="M253.04 54.9201V34.3701H255.33V54.9201H253.04Z" fill="white"></path><path d="M59.76 38.1801C59.01 38.1801 58.32 38.4001 57.72 38.7601L50.77 31.8101L57.54 25.0401C58.12 25.3601 58.78 25.5701 59.48 25.5701C61.69 25.5701 63.48 23.7801 63.48 21.5701C63.48 19.3601 61.69 17.5701 59.48 17.5701C57.27 17.5701 55.48 19.3601 55.48 21.5701C55.48 22.2801 55.68 22.9401 56.01 23.5101L49.24 30.2801L46.73 27.7701L51.82 22.6801C52.24 22.2601 52.24 21.5701 51.82 21.1501C51.4 20.7301 50.71 20.7301 50.29 21.1501L45.2 26.2401L41.95 22.9901L52.16 12.7801C52.58 12.3601 52.58 11.6701 52.16 11.2501C51.74 10.8301 51.05 10.8301 50.63 11.2501L40.42 21.4601L37.08 18.1201L42.17 13.0301C42.59 12.6101 42.59 11.9201 42.17 11.5001C41.75 11.0801 41.06 11.0801 40.64 11.5001L35.55 16.5901L33.48 14.5201L40.25 7.75009C40.83 8.08009 41.49 8.28009 42.19 8.28009C44.4 8.28009 46.19 6.49009 46.19 4.28009C46.19 2.07009 44.4 0.280092 42.19 0.280092C39.98 0.280092 38.19 2.07009 38.19 4.28009C38.19 4.99009 38.39 5.65009 38.72 6.22009L31.95 12.9901L25 6.04009C25.36 5.44009 25.58 4.75009 25.58 4.00009C25.57 1.79009 23.78 9.15527e-05 21.57 9.15527e-05C19.36 9.15527e-05 17.57 1.79009 17.57 4.00009C17.57 6.21009 19.36 8.00009 21.57 8.00009C22.24 8.00009 22.86 7.82009 23.41 7.53009L30.4 14.5201L27.67 17.2501L22.6 12.1801C22.18 11.7601 21.49 11.7601 21.07 12.1801C20.86 12.3901 20.75 12.6701 20.75 12.9501C20.75 13.2301 20.86 13.5001 21.07 13.7201L26.14 18.7901L22.89 22.0401L12.7 11.8501C12.28 11.4301 11.59 11.4301 11.17 11.8501C10.96 12.0601 10.85 12.3401 10.85 12.6201C10.85 12.9001 10.96 13.1701 11.17 13.3901L21.36 23.5801L18.02 26.9201L12.95 21.8501C12.53 21.4301 11.84 21.4301 11.42 21.8501C11.21 22.0601 11.1 22.3401 11.1 22.6201C11.1 22.9001 11.21 23.1701 11.42 23.3901L16.49 28.4601L14.48 30.4701L7.53 23.5201C7.89 22.9201 8.11 22.2301 8.11 21.4801C8.11 19.2701 6.32 17.4801 4.11 17.4801C1.9 17.4801 0.12 19.2501 0.12 21.4601C0.12 23.6701 1.91 25.4601 4.12 25.4601C4.79 25.4601 5.41 25.2801 5.96 24.9901L12.95 31.9801L5.94 38.9901C5.36 38.6701 4.7 38.4601 4 38.4601C1.79 38.4601 0 40.2601 0 42.4601C0 44.6701 1.79 46.4601 4 46.4601C6.21 46.4601 8 44.6701 8 42.4601C8 41.7501 7.8 41.0901 7.47 40.5201L14.48 33.5101L17 36.0301C17 36.0301 16.95 36.0601 16.92 36.0801L11.65 41.3501C11.44 41.5601 11.33 41.8401 11.33 42.1201C11.33 42.4001 11.44 42.6701 11.65 42.8901C12.07 43.3101 12.76 43.3101 13.18 42.8901L18.45 37.6201C18.45 37.6201 18.48 37.5701 18.5 37.5401L21.76 40.8001L11.31 51.2501C11.1 51.4601 10.99 51.7401 10.99 52.0201C10.99 52.3001 11.1 52.5701 11.31 52.7901C11.73 53.2101 12.42 53.2101 12.84 52.7901L23.29 42.3401L26.65 45.7001C26.65 45.7001 26.6 45.7301 26.57 45.7501L21.3 51.0201C21.09 51.2301 20.98 51.5101 20.98 51.7901C20.98 52.0701 21.09 52.3401 21.3 52.5601C21.72 52.9801 22.41 52.9801 22.83 52.5601L28.1 47.2901C28.1 47.2901 28.13 47.2401 28.15 47.2101L30.24 49.3001L23.23 56.3101C22.65 55.9901 21.99 55.7801 21.29 55.7801C19.08 55.7801 17.29 57.5801 17.29 59.7801C17.29 61.9901 19.08 63.7801 21.29 63.7801C23.5 63.7801 25.29 61.9901 25.29 59.7801C25.29 59.0701 25.09 58.4101 24.76 57.8401L31.77 50.8301L38.76 57.8201C38.47 58.3701 38.29 59.0001 38.29 59.6601C38.29 61.8701 40.08 63.6601 42.29 63.6601C44.5 63.6601 46.29 61.8701 46.29 59.6601C46.29 57.4501 44.5 55.6601 42.29 55.6601C41.54 55.6601 40.85 55.8801 40.25 56.2401L33.3 49.2901L35.79 46.8001L40.86 51.8701C41.28 52.2901 41.97 52.2901 42.39 51.8701C42.81 51.4501 42.81 50.7601 42.39 50.3401L37.32 45.2701L40.57 42.0201L50.76 52.2101C51.18 52.6301 51.87 52.6301 52.29 52.2101C52.71 51.7901 52.71 51.1001 52.29 50.6801L42.1 40.4901L45.44 37.1501L50.51 42.2201C50.93 42.6401 51.62 42.6401 52.04 42.2201C52.46 41.8001 52.46 41.1101 52.04 40.6901L46.97 35.6201L49.22 33.3701L56.21 40.3601C55.92 40.9101 55.74 41.5401 55.74 42.2001C55.74 44.4101 57.53 46.2001 59.74 46.2001C61.95 46.2001 63.74 44.4101 63.74 42.2001C63.74 39.9901 61.95 38.2001 59.74 38.2001L59.76 38.1801ZM59.48 19.7401C60.49 19.7401 61.32 20.5601 61.32 21.5801C61.32 22.5901 60.5 23.4201 59.48 23.4201C58.47 23.4201 57.64 22.6001 57.64 21.5801C57.64 20.5701 58.46 19.7401 59.48 19.7401ZM42.18 2.44009C43.19 2.44009 44.02 3.26009 44.02 4.28009C44.02 5.29009 43.2 6.12009 42.18 6.12009C41.16 6.12009 40.34 5.30009 40.34 4.28009C40.34 3.27009 41.16 2.44009 42.18 2.44009ZM21.57 5.84009C20.56 5.84009 19.73 5.02009 19.73 4.00009C19.73 2.99009 20.55 2.16009 21.57 2.16009C22.59 2.16009 23.41 2.98009 23.41 4.00009C23.41 5.01009 22.59 5.84009 21.57 5.84009ZM4.12 23.2901C3.11 23.2901 2.28 22.4701 2.28 21.4501C2.28 20.4401 3.1 19.6101 4.12 19.6101C5.13 19.6101 5.96 20.4301 5.96 21.4501C5.96 22.4601 5.14 23.2901 4.12 23.2901ZM4 44.3001C2.99 44.3001 2.16 43.4801 2.16 42.4601C2.16 41.4501 2.98 40.6201 4 40.6201C5.02 40.6201 5.84 41.4401 5.84 42.4601C5.84 43.4701 5.02 44.3001 4 44.3001ZM21.29 61.5901C20.28 61.5901 19.45 60.7701 19.45 59.7501C19.45 58.7401 20.27 57.9101 21.29 57.9101C22.3 57.9101 23.13 58.7301 23.13 59.7501C23.13 60.7601 22.31 61.5901 21.29 61.5901ZM42.3 57.8001C43.31 57.8001 44.14 58.6201 44.14 59.6401C44.14 60.6501 43.32 61.4801 42.3 61.4801C41.29 61.4801 40.46 60.6601 40.46 59.6401C40.46 58.6301 41.28 57.8001 42.3 57.8001ZM31.78 47.7401L16.02 31.9801L31.94 16.0601L47.7 31.8201L31.78 47.7401ZM59.76 44.0201C58.75 44.0201 57.92 43.2001 57.92 42.1801C57.92 41.1601 58.74 40.3401 59.76 40.3401C60.77 40.3401 61.6 41.1601 61.6 42.1801C61.6 43.1901 60.78 44.0201 59.76 44.0201Z" fill="white"></path><path d="M31.7451 23.7025L23.4296 32.0181L31.7451 40.3337L40.0607 32.0181L31.7451 23.7025Z" fill="white"></path></g><defs><clipPath id="clip0_20_481"><rect width="294.64" height="63.76" fill="white"></rect></clipPath></defs></svg> 