<?xml version="1.0" encoding="UTF-8" standalone="no"?>
<svg
   id="svg1"
   version="1.1"
   viewBox="0 0 1024 1024"
   sodipodi:docname="logo-text-light.svg"
   inkscape:export-filename="../bb9007a3/logo-text-light.svg"
   inkscape:export-xdpi="96"
   inkscape:export-ydpi="96"
   inkscape:version="1.4.2 (2aeb623e1d, 2025-05-12)"
   xmlns:inkscape="http://www.inkscape.org/namespaces/inkscape"
   xmlns:sodipodi="http://sodipodi.sourceforge.net/DTD/sodipodi-0.dtd"
   xmlns="http://www.w3.org/2000/svg"
   xmlns:svg="http://www.w3.org/2000/svg">
  <defs
     id="defs10" />
  <!-- Generator: Adobe Illustrator 29.5.1, SVG Export Plug-In . SVG Version: 2.1.0 Build 141)  -->
  <g
     id="_x3C_defs">
    <inkscape:path-effect
       id="path-effect43"
       effect="fill_between_many"
       linkedpaths="#path40,0,1|"
       method="originald" />
    <inkscape:path-effect
       id="path-effect44"
       effect="fill_between_many"
       linkedpaths="#path38,0,1|"
       method="originald" />
  </g>
  <sodipodi:namedview
     id="namedview1"
     bordercolor="#000000"
     borderopacity="0.25"
     inkscape:current-layer="g1"
     inkscape:cx="583.39384"
     inkscape:cy="651.27609"
     inkscape:deskcolor="#d1d1d1"
     inkscape:pagecheckerboard="0"
     inkscape:pageopacity="0.0"
     inkscape:showpageshadow="2"
     inkscape:window-height="1011"
     inkscape:window-maximized="1"
     inkscape:window-width="1854"
     inkscape:window-x="66"
     inkscape:window-y="32"
     inkscape:zoom="0.508233"
     pagecolor="#ffffff"
     inkscape:export-bgcolor="#00000000" />
  <g
     id="g1"
     inkscape:groupmode="layer"
     inkscape:label="Image">
    <path
       id="path43"
       d="m 790.551,481.013 c 2.269,-2.269 6.152,-10.636 8.627,-18.592 5.67,-18.221 15.068,-79.867 13.428,-88.071 -0.677,-3.386 -4.172,-8.631 -7.765,-11.655 -5.532,-4.655 -8.004,-5.332 -16.124,-4.417 -14.099,1.589 -20.288,9.397 -23.325,29.429 -1.303,8.595 -5.231,27.692 -8.729,42.437 -3.497,14.745 -6.359,29.113 -6.359,31.93 0,16.661 28.917,30.269 40.247,18.939 z"
       fill="#ff5a59" />
    <path
       id="path41"
       d="m 744.547,690.225 c 34.77,-11.98 55.547,-44.032 53.333,-82.276 -2.619,-45.241 -45.319,-80.959 -90.668,-75.843 -6.287,0.709 -14.38,2.522 -17.984,4.028 -13.363,5.583 -13.787,5.308 -51.001,-32.995 -19.094,-19.653 -36.257,-38.13 -38.14,-41.061 -3.265,-5.082 -3.271,-6.101 -0.132,-22.078 2.847,-14.488 2.961,-18.466 0.847,-29.458 -5.092,-26.469 -9.073,-19.427 36.748,-64.997 22.55,-22.427 42.447,-40.776 44.216,-40.776 1.769,0 9.646,2.159 17.506,4.797 21.288,7.146 40.793,5.916 61.498,-3.879 31.696,-14.995 50.887,-50.675 45.272,-84.172 -4.559,-27.197 -21.446,-50.076 -45.87,-62.147 -14.061,-6.949 -15.059,-7.149 -35.673,-7.149 -19.899,0 -22.011,0.381 -34.232,6.169 -40.743,19.298 -60.587,65.101 -44.69,103.148 1.665,3.984 3.027,9.145 3.027,11.468 0,2.988 -11.776,15.558 -40.232,42.944 l -40.232,38.719 -11.098,-5.588 c -30.299,-15.256 -52.518,-15.275 -81.046,-0.07 -14.857,7.919 -25.502,19.755 -34.417,38.271 -6.607,13.721 -6.93,15.331 -6.93,34.54 0,19.309 0.298,20.773 7.167,35.157 19.932,41.744 66.01,59.972 107.376,42.477 21.892,-9.259 17.452,-11.636 58.752,31.46 20.253,21.134 36.823,39.741 36.823,41.349 0,1.608 -1.794,7.476 -3.987,13.039 -14.418,36.58 1.876,80.736 36.628,99.259 21.924,11.685 44.206,13.565 67.14,5.663 v 0 z"
       fill="#ff5a59" />
    <path
       id="path39"
       d="m 546.306,782.661 c 20.817,-9.944 65.512,-36.331 69.33,-40.931 1.548,-1.866 -1.701,-6.535 -13.354,-19.191 -8.47,-9.199 -16.059,-16.725 -16.863,-16.725 -0.804,0 -6.993,3.579 -13.753,7.954 -30.144,19.509 -44.423,26.586 -53.638,26.586 -11.097,0 -36.798,-12.66 -68.32,-33.652 -118.057,-78.62 -187.886,-191.049 -203.47,-327.597 -3.95,-34.609 -4.746,-134.468 -1.122,-140.802 1.646,-2.877 14.538,-9.006 43.171,-20.522 22.453,-9.031 70.615,-28.611 107.025,-43.511 96.536,-39.504 115.439,-46.752 121.849,-46.718 5.75,0.031 34.663,10.902 67.942,25.547 9.691,4.265 18.405,7.754 19.366,7.754 2.702,0 29.219,-38.04 27.949,-40.094 -0.618,-1 -5.217,-3.324 -10.219,-5.165 -5.002,-1.84 -29.369,-11.407 -54.149,-21.259 -24.78,-9.852 -47.875,-17.913 -51.324,-17.913 -3.722,0 -57.149,20.352 -131.483,50.087 -68.867,27.548 -137.734,54.809 -153.037,60.581 -18.9,7.128 -29.67,12.312 -33.58,16.162 l -5.757,5.668 0.149,67.593 c 0.205,93.164 4.842,133.811 21.914,192.109 23.635,80.709 62.544,146.226 122.738,206.673 44.102,44.288 87.222,75.572 142.901,103.678 36.317,18.332 35.208,18.27 65.735,3.688 z"
       fill="#202020"
       style="fill:#ffffff" />
    <g
       id="text45"
       isolation="isolate"
       style="fill:#ffffff">
      <g
         isolation="isolate"
         id="g10"
         style="fill:#ffffff">
        <path
           d="M274.766,934.846c-5.032,0-9.398-.812-13.102-2.438s-6.602-3.898-8.695-6.82c-2.094-2.922-3.281-6.336-3.562-10.242h9.141c.25,2.625,1.141,4.789,2.672,6.492,1.531,1.703,3.492,2.969,5.883,3.797s4.945,1.242,7.664,1.242c3.156,0,5.992-.516,8.508-1.547,2.515-1.031,4.507-2.484,5.977-4.359,1.469-1.875,2.203-4.047,2.203-6.516,0-2.25-.633-4.078-1.898-5.484s-2.946-2.562-5.039-3.469c-2.094-.906-4.391-1.703-6.891-2.391l-8.438-2.391c-5.625-1.594-10-3.875-13.125-6.844-3.125-2.969-4.688-6.766-4.688-11.391,0-3.938,1.062-7.383,3.188-10.336,2.125-2.953,5-5.242,8.625-6.867,3.625-1.625,7.688-2.438,12.188-2.438,4.594,0,8.656.812,12.188,2.438,3.531,1.625,6.32,3.836,8.367,6.633,2.046,2.797,3.133,5.961,3.258,9.492h-8.719c-.406-3.406-2.032-6.039-4.875-7.898-2.844-1.859-6.344-2.789-10.5-2.789-3,0-5.633.492-7.898,1.477-2.266.984-4.024,2.328-5.273,4.031-1.25,1.703-1.875,3.648-1.875,5.836,0,2.438.757,4.398,2.273,5.883,1.516,1.484,3.312,2.641,5.391,3.469,2.078.828,3.961,1.477,5.648,1.945l6.984,1.922c1.875.5,3.945,1.188,6.211,2.062,2.266.875,4.43,2.039,6.492,3.492s3.757,3.297,5.086,5.531c1.328,2.234,1.992,4.977,1.992,8.227,0,3.812-.992,7.25-2.977,10.312-1.985,3.062-4.868,5.484-8.648,7.266-3.781,1.781-8.36,2.672-13.734,2.672Z"
           fill="#202020"
           id="path1"
           style="fill:#ffffff" />
        <path
           d="M312.125,952.612l2.156-7.312.891.234c1.718.438,3.281.555,4.688.352s2.672-.898,3.797-2.086,2.109-3.031,2.953-5.531l1.5-4.359-20.016-52.688h9.234l11.156,31.078c1.188,3.25,2.187,6.469,3,9.656.812,3.188,1.671,6.281,2.578,9.281h-3.094c.906-3,1.773-6.102,2.602-9.305.828-3.203,1.82-6.414,2.977-9.633l11.25-31.078h9.188l-23.016,60.234c-1.062,2.781-2.336,5.07-3.82,6.867-1.484,1.797-3.211,3.125-5.18,3.984s-4.188,1.289-6.656,1.289c-1.5,0-2.797-.109-3.891-.328-1.094-.219-1.859-.438-2.297-.656Z"
           fill="#202020"
           id="path2"
           style="fill:#ffffff" />
        <path
           d="M375.359,902.221v31.406h-8.438v-52.406h8.109l.047,12.703h-1.172c1.594-4.844,3.867-8.281,6.82-10.312s6.414-3.047,10.383-3.047c3.531,0,6.625.727,9.281,2.18,2.656,1.453,4.727,3.641,6.211,6.562,1.484,2.922,2.227,6.602,2.227,11.039v33.281h-8.438v-32.578c0-4.031-1.055-7.188-3.164-9.469s-4.992-3.422-8.648-3.422c-2.5,0-4.75.547-6.75,1.641-2,1.094-3.579,2.688-4.734,4.781-1.156,2.094-1.734,4.641-1.734,7.641Z"
           fill="#202020"
           id="path3"
           style="fill:#ffffff" />
        <path
           d="M444.266,881.221v7.219h-27.094v-7.219h27.094ZM425.047,868.752h8.438v51.281c0,2.344.476,4.055,1.43,5.133.953,1.078,2.539,1.617,4.758,1.617.531,0,1.211-.062,2.039-.188.828-.125,1.586-.25,2.273-.375l1.734,7.125c-.875.312-1.868.547-2.977.703-1.109.156-2.211.234-3.305.234-4.531,0-8.062-1.195-10.594-3.586s-3.797-5.727-3.797-10.008v-51.938Z"
           fill="#202020"
           id="path4"
           style="fill:#ffffff" />
        <path
           d="M463.484,902.221v31.406h-8.438v-69.844h8.438v30.141h-1.453c1.594-4.844,3.867-8.281,6.82-10.312s6.414-3.047,10.383-3.047c3.531,0,6.633.727,9.305,2.18s4.75,3.641,6.234,6.562c1.484,2.922,2.227,6.602,2.227,11.039v33.281h-8.484v-32.578c0-4.031-1.055-7.188-3.164-9.469s-4.992-3.422-8.648-3.422c-2.5,0-4.75.547-6.75,1.641-2,1.094-3.579,2.688-4.734,4.781-1.156,2.094-1.734,4.641-1.734,7.641Z"
           fill="#202020"
           id="path5"
           style="fill:#ffffff" />
        <path
           d="M541.391,934.565c-6.219,0-11.672-1.453-16.359-4.359s-8.344-7.039-10.969-12.398-3.938-11.711-3.938-19.055c0-7.406,1.312-13.789,3.938-19.148s6.25-9.492,10.875-12.398,9.922-4.359,15.891-4.359c3.688,0,7.133.547,10.336,1.641s6.07,2.656,8.602,4.688,4.633,4.445,6.305,7.242,2.82,5.883,3.445,9.258h-9.188c-.719-2.25-1.672-4.266-2.859-6.047s-2.602-3.312-4.242-4.594-3.492-2.258-5.555-2.93-4.328-1.008-6.797-1.008c-4.094,0-7.812,1.055-11.156,3.164s-6,5.219-7.969,9.328-2.953,9.164-2.953,15.164c0,5.938.992,10.953,2.977,15.047s4.68,7.203,8.086,9.328,7.25,3.188,11.531,3.188c3.938,0,7.406-.836,10.406-2.508s5.336-4.047,7.008-7.125,2.508-6.711,2.508-10.898l2.672.516h-20.766v-7.781h26.812v7.641c0,5.781-1.234,10.797-3.703,15.047s-5.852,7.539-10.148,9.867-9.227,3.492-14.789,3.492Z"
           fill="#202020"
           id="path6"
           style="fill:#ffffff" />
        <path
           d="M601.203,934.284c-3.531,0-6.633-.727-9.305-2.18s-4.75-3.648-6.234-6.586-2.227-6.609-2.227-11.016v-33.281h8.438v32.578c0,4.031,1.062,7.188,3.188,9.469s5.016,3.422,8.672,3.422c2.5,0,4.742-.547,6.727-1.641s3.555-2.695,4.711-4.805,1.734-4.648,1.734-7.617v-31.406h8.484v52.406h-8.156v-12.703h1.125c-1.625,4.906-3.93,8.359-6.914,10.359s-6.398,3-10.242,3Z"
           fill="#202020"
           id="path7"
           style="fill:#ffffff" />
        <path
           d="M654.875,934.846c-3.312,0-6.32-.625-9.023-1.875s-4.852-3.078-6.445-5.484-2.391-5.328-2.391-8.766c0-3,.594-5.438,1.781-7.312s2.773-3.352,4.758-4.43,4.18-1.883,6.586-2.414,4.828-.953,7.266-1.266c3.125-.406,5.672-.719,7.641-.938s3.43-.594,4.383-1.125,1.43-1.438,1.43-2.719v-.281c0-2.188-.406-4.039-1.219-5.555s-2.031-2.68-3.656-3.492-3.656-1.219-6.094-1.219c-2.5,0-4.641.391-6.422,1.172s-3.227,1.758-4.336,2.93-1.945,2.367-2.508,3.586l-8.109-2.672c1.344-3.188,3.156-5.68,5.438-7.477s4.797-3.07,7.547-3.82,5.469-1.125,8.156-1.125c1.75,0,3.742.211,5.977.633s4.391,1.258,6.469,2.508,3.797,3.102,5.156,5.555,2.039,5.727,2.039,9.82v34.547h-8.297v-7.125h-.562c-.594,1.219-1.547,2.477-2.859,3.773s-3.016,2.383-5.109,3.258-4.625,1.312-7.594,1.312ZM656.328,927.393c3.125,0,5.766-.609,7.922-1.828s3.797-2.805,4.922-4.758,1.688-3.992,1.688-6.117v-7.266c-.344.406-1.094.773-2.25,1.102s-2.477.617-3.961.867-2.922.461-4.312.633-2.492.305-3.305.398c-2.031.25-3.93.68-5.695,1.289s-3.18,1.5-4.242,2.672-1.594,2.758-1.594,4.758c0,1.812.469,3.328,1.406,4.547s2.219,2.141,3.844,2.766,3.484.938,5.578.938Z"
           fill="#202020"
           id="path8"
           style="fill:#ffffff" />
        <path
           d="M694.109,933.627v-52.406h8.156v8.062h.562c.969-2.656,2.695-4.789,5.18-6.398s5.289-2.414,8.414-2.414c.625,0,1.367.016,2.227.047s1.539.062,2.039.094v8.484c-.25-.062-.875-.156-1.875-.281s-2.062-.188-3.188-.188c-2.5,0-4.742.523-6.727,1.57s-3.539,2.484-4.664,4.312-1.688,3.93-1.688,6.305v32.812h-8.438Z"
           fill="#202020"
           id="path9"
           style="fill:#ffffff" />
        <path
           d="M748.297,934.752c-4.344,0-8.188-1.109-11.531-3.328s-5.953-5.359-7.828-9.422-2.812-8.875-2.812-14.438c0-5.531.945-10.32,2.836-14.367s4.508-7.164,7.852-9.352,7.188-3.281,11.531-3.281c3.406,0,6.109.562,8.109,1.688s3.539,2.398,4.617,3.82,1.898,2.602,2.461,3.539h.656v-25.828h8.438v69.844h-8.156v-8.109h-.938c-.562.969-1.398,2.18-2.508,3.633s-2.672,2.75-4.688,3.891-4.695,1.711-8.039,1.711ZM749.562,927.205c3.188,0,5.875-.836,8.062-2.508s3.844-3.992,4.969-6.961,1.688-6.391,1.688-10.266-.555-7.258-1.664-10.148-2.758-5.148-4.945-6.773-4.891-2.438-8.109-2.438c-3.312,0-6.07.859-8.273,2.578s-3.852,4.039-4.945,6.961-1.641,6.195-1.641,9.82c0,3.656.555,6.977,1.664,9.961s2.773,5.359,4.992,7.125,4.953,2.648,8.203,2.648Z"
           fill="#202020"
           id="path10"
           style="fill:#ffffff" />
      </g>
    </g>
  </g>
</svg>
